<svg width="323" height="323" viewBox="0 0 323 323" fill="none" xmlns="http://www.w3.org/2000/svg">
<rect width="323" height="323" rx="10" fill="white"/>
<rect opacity="0.31" x="128.909" y="71.3014" width="16" height="16" transform="rotate(15 128.909 71.3014)" fill="#44C9EE"/>
<rect opacity="0.31" x="124.51" y="87.7221" width="16" height="16" transform="rotate(15 124.51 87.7221)" fill="#44C9EE"/>
<rect opacity="0.31" x="136.53" y="108.543" width="16" height="16" transform="rotate(15 136.53 108.543)" fill="#44C9EE"/>
<rect opacity="0.31" x="115.709" y="120.564" width="16" height="16" transform="rotate(15 115.709 120.564)" fill="#44C9EE"/>
<rect opacity="0.31" x="111.31" y="136.984" width="16" height="16" transform="rotate(15 111.31 136.984)" fill="#44C9EE"/>
<rect opacity="0.31" x="127.73" y="141.384" width="16" height="16" transform="rotate(15 127.73 141.384)" fill="#44C9EE"/>
<rect opacity="0.31" x="106.909" y="153.405" width="16" height="16" transform="rotate(15 106.909 153.405)" fill="#44C9EE"/>
<rect opacity="0.31" x="102.51" y="169.826" width="16" height="16" transform="rotate(15 102.51 169.826)" fill="#44C9EE"/>
<rect opacity="0.31" x="93.71" y="202.667" width="16" height="16" transform="rotate(15 93.71 202.667)" fill="#44C9EE"/>
<rect opacity="0.31" x="118.931" y="174.226" width="16" height="16" transform="rotate(15 118.931 174.226)" fill="#44C9EE"/>
<rect opacity="0.31" x="105.73" y="223.488" width="16" height="16" transform="rotate(15 105.73 223.488)" fill="#44C9EE"/>
<rect opacity="0.31" x="84.9102" y="235.509" width="16" height="16" transform="rotate(15 84.9102 235.509)" fill="#44C9EE"/>
<rect opacity="0.31" x="114.53" y="190.646" width="16" height="16" transform="rotate(15 114.53 190.646)" fill="#44C9EE"/>
<rect opacity="0.31" x="98.1094" y="186.247" width="16" height="16" transform="rotate(15 98.1094 186.247)" fill="#E7F4FC"/>
<rect opacity="0.31" x="101.331" y="239.909" width="16" height="16" transform="rotate(15 101.331 239.909)" fill="#E7F4FC"/>
<rect opacity="0.31" x="140.93" y="92.1221" width="16" height="16" transform="rotate(15 140.93 92.1221)" fill="#E7F4FC"/>
<rect opacity="0.31" x="145.33" y="75.7013" width="16" height="16" transform="rotate(15 145.33 75.7013)" fill="#44C9EE"/>
<rect opacity="0.31" x="194.592" y="88.9011" width="16" height="16" transform="rotate(15 194.592 88.9011)" fill="#44C9EE"/>
<rect opacity="0.31" x="211.012" y="93.301" width="16" height="16" transform="rotate(15 211.012 93.301)" fill="#44C9EE"/>
<rect opacity="0.31" x="173.771" y="100.922" width="16" height="16" transform="rotate(15 173.771 100.922)" fill="#44C9EE"/>
<rect opacity="0.31" x="157.351" y="96.522" width="16" height="16" transform="rotate(15 157.351 96.522)" fill="#44C9EE"/>
<rect opacity="0.31" x="190.192" y="105.322" width="16" height="16" transform="rotate(15 190.192 105.322)" fill="#E7F4FC"/>
<rect opacity="0.31" x="206.613" y="109.722" width="16" height="16" transform="rotate(15 206.613 109.722)" fill="#44C9EE"/>
<rect opacity="0.31" x="202.213" y="126.142" width="16" height="16" transform="rotate(15 202.213 126.142)" fill="#44C9EE"/>
<rect opacity="0.31" x="193.413" y="158.984" width="16" height="16" transform="rotate(15 193.413 158.984)" fill="#44C9EE"/>
<rect opacity="0.31" x="139.751" y="162.205" width="16" height="16" transform="rotate(15 139.751 162.205)" fill="#44C9EE"/>
<rect opacity="0.31" x="156.172" y="166.605" width="16" height="16" transform="rotate(15 156.172 166.605)" fill="#E7F4FC"/>
<rect opacity="0.31" x="172.593" y="171.005" width="16" height="16" transform="rotate(15 172.593 171.005)" fill="#44C9EE"/>
<rect opacity="0.31" x="218.633" y="130.542" width="16" height="16" transform="rotate(15 218.633 130.542)" fill="#44C9EE"/>
<rect opacity="0.31" x="214.233" y="146.963" width="16" height="16" transform="rotate(15 214.233 146.963)" fill="#E7F4FC"/>
<rect opacity="0.31" x="209.833" y="163.384" width="16" height="16" transform="rotate(15 209.833 163.384)" fill="#44C9EE"/>
<rect opacity="0.31" x="223.033" y="114.122" width="16" height="16" transform="rotate(15 223.033 114.122)" fill="#44C9EE"/>
<rect opacity="0.31" x="235.054" y="134.942" width="16" height="16" transform="rotate(15 235.054 134.942)" fill="#44C9EE"/>
<rect opacity="0.31" x="230.653" y="151.363" width="16" height="16" transform="rotate(15 230.653 151.363)" fill="#44C9EE"/>
<rect opacity="0.31" x="226.254" y="167.784" width="16" height="16" transform="rotate(15 226.254 167.784)" fill="#44C9EE"/>
<rect opacity="0.31" x="205.434" y="179.805" width="16" height="16" transform="rotate(15 205.434 179.805)" fill="#44C9EE"/>
<rect opacity="0.31" x="184.613" y="191.825" width="16" height="16" transform="rotate(15 184.613 191.825)" fill="#44C9EE"/>
<rect opacity="0.31" x="168.192" y="187.426" width="16" height="16" transform="rotate(15 168.192 187.426)" fill="#44C9EE"/>
<rect opacity="0.31" x="151.771" y="183.026" width="16" height="16" transform="rotate(15 151.771 183.026)" fill="#44C9EE"/>
<rect opacity="0.31" x="135.352" y="178.626" width="16" height="16" transform="rotate(15 135.352 178.626)" fill="#44C9EE"/>
<rect opacity="0.31" x="178.172" y="84.5012" width="16" height="16" transform="rotate(15 178.172 84.5012)" fill="#44C9EE"/>
<rect x="122.14" y="65" width="16" height="16" transform="rotate(15 122.14 65)" fill="#44C9EE"/>
<rect x="117.74" y="81.4207" width="16" height="16" transform="rotate(15 117.74 81.4207)" fill="#44C9EE"/>
<rect x="129.761" y="102.241" width="16" height="16" transform="rotate(15 129.761 102.241)" fill="#44C9EE"/>
<rect x="108.939" y="114.262" width="16" height="16" transform="rotate(15 108.939 114.262)" fill="#44C9EE"/>
<rect x="104.54" y="130.683" width="16" height="16" transform="rotate(15 104.54 130.683)" fill="#44C9EE"/>
<rect x="120.961" y="135.083" width="16" height="16" transform="rotate(15 120.961 135.083)" fill="#44C9EE"/>
<rect x="100.14" y="147.104" width="16" height="16" transform="rotate(15 100.14 147.104)" fill="#44C9EE"/>
<rect x="95.7402" y="163.524" width="16" height="16" transform="rotate(15 95.7402 163.524)" fill="#44C9EE"/>
<rect x="86.9404" y="196.366" width="16" height="16" transform="rotate(15 86.9404 196.366)" fill="#44C9EE"/>
<rect x="112.161" y="167.924" width="16" height="16" transform="rotate(15 112.161 167.924)" fill="#44C9EE"/>
<rect x="98.9609" y="217.187" width="16" height="16" transform="rotate(15 98.9609 217.187)" fill="#44C9EE"/>
<rect x="78.1406" y="229.207" width="16" height="16" transform="rotate(15 78.1406 229.207)" fill="#44C9EE"/>
<rect x="107.761" y="184.345" width="16" height="16" transform="rotate(15 107.761 184.345)" fill="#44C9EE"/>
<rect x="91.3398" y="179.945" width="16" height="16" transform="rotate(15 91.3398 179.945)" fill="#E7F4FC"/>
<rect x="94.5615" y="233.607" width="16" height="16" transform="rotate(15 94.5615 233.607)" fill="#E7F4FC"/>
<rect x="134.16" y="85.8207" width="16" height="16" transform="rotate(15 134.16 85.8207)" fill="#E7F4FC"/>
<rect x="138.561" y="69.3999" width="16" height="16" transform="rotate(15 138.561 69.3999)" fill="#44C9EE"/>
<rect x="187.822" y="82.5997" width="16" height="16" transform="rotate(15 187.822 82.5997)" fill="#44C9EE"/>
<rect x="204.243" y="86.9996" width="16" height="16" transform="rotate(15 204.243 86.9996)" fill="#44C9EE"/>
<rect x="167.002" y="94.6205" width="16" height="16" transform="rotate(15 167.002 94.6205)" fill="#44C9EE"/>
<rect x="150.581" y="90.2206" width="16" height="16" transform="rotate(15 150.581 90.2206)" fill="#44C9EE"/>
<rect x="183.423" y="99.0204" width="16" height="16" transform="rotate(15 183.423 99.0204)" fill="#E7F4FC"/>
<rect x="199.844" y="103.42" width="16" height="16" transform="rotate(15 199.844 103.42)" fill="#44C9EE"/>
<rect x="195.443" y="119.841" width="16" height="16" transform="rotate(15 195.443 119.841)" fill="#44C9EE"/>
<rect x="186.644" y="152.683" width="16" height="16" transform="rotate(15 186.644 152.683)" fill="#44C9EE"/>
<rect x="132.981" y="155.904" width="16" height="16" transform="rotate(15 132.981 155.904)" fill="#44C9EE"/>
<rect x="149.402" y="160.303" width="16" height="16" transform="rotate(15 149.402 160.303)" fill="#E7F4FC"/>
<rect x="165.823" y="164.703" width="16" height="16" transform="rotate(15 165.823 164.703)" fill="#44C9EE"/>
<rect x="211.864" y="124.241" width="16" height="16" transform="rotate(15 211.864 124.241)" fill="#44C9EE"/>
<rect x="207.465" y="140.662" width="16" height="16" transform="rotate(15 207.465 140.662)" fill="#E7F4FC"/>
<rect x="203.064" y="157.082" width="16" height="16" transform="rotate(15 203.064 157.082)" fill="#44C9EE"/>
<rect x="216.265" y="107.82" width="16" height="16" transform="rotate(15 216.265 107.82)" fill="#44C9EE"/>
<rect x="228.285" y="128.641" width="16" height="16" transform="rotate(15 228.285 128.641)" fill="#44C9EE"/>
<rect x="223.885" y="145.062" width="16" height="16" transform="rotate(15 223.885 145.062)" fill="#44C9EE"/>
<rect x="219.485" y="161.482" width="16" height="16" transform="rotate(15 219.485 161.482)" fill="#44C9EE"/>
<rect x="198.664" y="173.503" width="16" height="16" transform="rotate(15 198.664 173.503)" fill="#44C9EE"/>
<rect x="177.844" y="185.524" width="16" height="16" transform="rotate(15 177.844 185.524)" fill="#44C9EE"/>
<rect x="161.423" y="181.124" width="16" height="16" transform="rotate(15 161.423 181.124)" fill="#44C9EE"/>
<rect x="145.002" y="176.724" width="16" height="16" transform="rotate(15 145.002 176.724)" fill="#44C9EE"/>
<rect x="128.582" y="172.324" width="16" height="16" transform="rotate(15 128.582 172.324)" fill="#44C9EE"/>
<rect x="171.402" y="78.1998" width="16" height="16" transform="rotate(15 171.402 78.1998)" fill="#44C9EE"/>
</svg>
